<?xml version="1.0" encoding="UTF-8" standalone="no"?><svg xmlns="http://www.w3.org/2000/svg" xmlns:xlink="http://www.w3.org/1999/xlink" contentScriptType="application/ecmascript" contentStyleType="text/css" height="592px" preserveAspectRatio="none" style="width:752px;height:592px;background:#FFFFFF;" version="1.1" viewBox="0 0 752 592" width="752px" zoomAndPan="magnify"><defs><filter height="300%" id="f1gqwejycat4zp" width="300%" x="-1" y="-1"><feGaussianBlur result="blurOut" stdDeviation="2.0"/><feColorMatrix in="blurOut" result="blurOut2" type="matrix" values="0 0 0 0 0 0 0 0 0 0 0 0 0 0 0 0 0 0 .4 0"/><feOffset dx="4.0" dy="4.0" in="blurOut2" result="blurOut3"/><feBlend in="SourceGraphic" in2="blurOut3" mode="normal"/></filter></defs><g><!--MD5=[0bf7db4756a5f1eff4857e97033ddbaa]
class HealthcareServiceable--><rect codeLine="4" fill="#FEFECE" filter="url(#f1gqwejycat4zp)" height="67.6719" id="HealthcareServiceable" style="stroke:#A80036;stroke-width:1.5;" width="158" x="532.5" y="195"/><ellipse cx="547.5" cy="211" fill="#B4A7E5" rx="11" ry="11" style="stroke:#A80036;stroke-width:1.0;"/><path d="M548.4531,207.6406 L548.4531,214.2969 L550.1719,214.2969 Q550.7813,214.2969 551.0469,214.5313 Q551.3125,214.7656 551.3125,215.1563 Q551.3125,215.5313 551.0469,215.7656 Q550.7813,216 550.1719,216 L545.0313,216 Q544.4219,216 544.1563,215.7656 Q543.8906,215.5313 543.8906,215.1406 Q543.8906,214.7656 544.1563,214.5313 Q544.4219,214.2969 545.0313,214.2969 L546.75,214.2969 L546.75,207.6406 L545.0313,207.6406 Q544.4219,207.6406 544.1563,207.4063 Q543.8906,207.1719 543.8906,206.7813 Q543.8906,206.4063 544.1563,206.1719 Q544.4219,205.9375 545.0313,205.9375 L550.1719,205.9375 Q550.7813,205.9375 551.0469,206.1719 Q551.3125,206.4063 551.3125,206.7813 Q551.3125,207.1719 551.0469,207.4063 Q550.7813,207.6406 550.1719,207.6406 L548.4531,207.6406 Z " fill="#000000"/><text fill="#000000" font-family="sans-serif" font-size="12" font-style="italic" lengthAdjust="spacing" textLength="126" x="561.5" y="215.9102">HealthcareServiceable</text><line style="stroke:#A80036;stroke-width:1.5;" x1="533.5" x2="689.5" y1="227" y2="227"/><ellipse cx="543.5" cy="238" fill="#84BE84" rx="3" ry="3" style="stroke:#038048;stroke-width:1.0;"/><text fill="#000000" font-family="sans-serif" font-size="11" lengthAdjust="spacing" textLength="73" x="552.5" y="242.4189">service() : void</text><ellipse cx="543.5" cy="251.8359" fill="#84BE84" rx="3" ry="3" style="stroke:#038048;stroke-width:1.0;"/><text fill="#000000" font-family="sans-serif" font-size="11" lengthAdjust="spacing" textLength="88" x="552.5" y="256.2549">getPrice() : double</text><!--MD5=[3409a218d36f0b39ff24677bfe948fe3]
class HealthcareWorker--><rect codeLine="8" fill="#FEFECE" filter="url(#f1gqwejycat4zp)" height="117.1797" id="HealthcareWorker" style="stroke:#A80036;stroke-width:1.5;" width="255" x="239" y="334"/><ellipse cx="312.25" cy="350" fill="#A9DCDF" rx="11" ry="11" style="stroke:#A80036;stroke-width:1.0;"/><path d="M314.4375,351.7656 L310.2969,351.7656 L309.875,352.7969 L310.2969,352.7969 Q310.9063,352.7969 311.1719,353.0313 Q311.4375,353.2656 311.4375,353.6563 Q311.4375,354.0313 311.1719,354.2656 Q310.9063,354.5 310.2969,354.5 L308,354.5 Q307.3906,354.5 307.1406,354.2656 Q306.875,354.0313 306.875,353.6406 Q306.875,353.2656 307.1563,353.0313 Q307.4219,352.7813 308.0469,352.7969 L310.7188,346.1406 L309.6094,346.1406 Q309,346.1406 308.7344,345.9063 Q308.4688,345.6719 308.4688,345.2813 Q308.4688,344.9063 308.7344,344.6719 Q309,344.4375 309.6094,344.4375 L313.2813,344.4375 L316.6719,352.7969 Q317.2656,352.7969 317.4531,352.9375 Q317.8438,353.2031 317.8438,353.6563 Q317.8438,354.0313 317.5781,354.2656 Q317.3281,354.5 316.7188,354.5 L314.4219,354.5 Q313.8125,354.5 313.5469,354.2656 Q313.2813,354.0313 313.2813,353.6406 Q313.2813,353.2656 313.5469,353.0313 Q313.8125,352.7969 314.4219,352.7969 L314.8438,352.7969 L314.4375,351.7656 Z M313.7188,350.0625 L312.3594,346.6875 L310.9844,350.0625 L313.7188,350.0625 Z " fill="#000000"/><text fill="#000000" font-family="sans-serif" font-size="12" font-style="italic" lengthAdjust="spacing" textLength="100" x="332.75" y="354.9102">HealthcareWorker</text><line style="stroke:#A80036;stroke-width:1.5;" x1="240" x2="493" y1="366" y2="366"/><rect fill="none" height="6" style="stroke:#C82930;stroke-width:1.0;" width="6" x="247" y="374"/><text fill="#000000" font-family="sans-serif" font-size="11" lengthAdjust="spacing" textLength="63" x="259" y="381.4189">name : String</text><rect fill="none" height="6" style="stroke:#C82930;stroke-width:1.0;" width="6" x="247" y="387.8359"/><text fill="#000000" font-family="sans-serif" font-size="11" lengthAdjust="spacing" textLength="65" x="259" y="395.2549">price : double</text><line style="stroke:#A80036;stroke-width:1.5;" x1="240" x2="493" y1="401.6719" y2="401.6719"/><ellipse cx="250" cy="412.6719" fill="#84BE84" rx="3" ry="3" style="stroke:#038048;stroke-width:1.0;"/><text fill="#000000" font-family="sans-serif" font-size="11" lengthAdjust="spacing" textLength="229" x="259" y="417.0908">HealthcareWorker(name : String, price : double)</text><ellipse cx="250" cy="426.5078" fill="#84BE84" rx="3" ry="3" style="stroke:#038048;stroke-width:1.0;"/><text fill="#000000" font-family="sans-serif" font-size="11" font-style="italic" lengthAdjust="spacing" textLength="73" x="259" y="430.9268">service() : void</text><ellipse cx="250" cy="440.3438" fill="#84BE84" rx="3" ry="3" style="stroke:#038048;stroke-width:1.0;"/><text fill="#000000" font-family="sans-serif" font-size="11" lengthAdjust="spacing" textLength="88" x="259" y="444.7627">getPrice() : double</text><!--MD5=[1c676b0f39eaab18c86d9e4221ae25b2]
class HealthcareWorkerTeam--><rect codeLine="15" fill="#FEFECE" filter="url(#f1gqwejycat4zp)" height="117.1797" id="HealthcareWorkerTeam" style="stroke:#A80036;stroke-width:1.5;" width="216" x="503.5" y="7"/><ellipse cx="542.35" cy="23" fill="#ADD1B2" rx="11" ry="11" style="stroke:#A80036;stroke-width:1.0;"/><path d="M545.1156,18.875 Q545.2719,18.6563 545.4594,18.5469 Q545.6469,18.4375 545.8656,18.4375 Q546.2406,18.4375 546.475,18.7031 Q546.7094,18.9531 546.7094,19.5625 L546.7094,21.0156 Q546.7094,21.625 546.475,21.8906 Q546.2406,22.1563 545.8656,22.1563 Q545.5219,22.1563 545.3188,21.9531 Q545.1156,21.7656 545.0063,21.25 Q544.9594,20.8906 544.7719,20.7031 Q544.4438,20.3281 543.8344,20.1094 Q543.225,19.8906 542.6,19.8906 Q541.8344,19.8906 541.1938,20.2188 Q540.5688,20.5469 540.0688,21.2969 Q539.5844,22.0469 539.5844,23.0781 L539.5844,24.1719 Q539.5844,25.4063 540.475,26.2344 Q541.3656,27.0469 542.9594,27.0469 Q543.8969,27.0469 544.5531,26.7969 Q544.9438,26.6406 545.3656,26.2031 Q545.6313,25.9375 545.7719,25.8594 Q545.9281,25.7813 546.1313,25.7813 Q546.4594,25.7813 546.7094,26.0469 Q546.975,26.2969 546.975,26.6406 Q546.975,26.9844 546.6313,27.3906 Q546.1313,27.9688 545.3344,28.2969 Q544.2563,28.75 542.9594,28.75 Q541.4438,28.75 540.2406,28.125 Q539.2563,27.625 538.5688,26.5625 Q537.8813,25.4844 537.8813,24.2031 L537.8813,23.0469 Q537.8813,21.7188 538.4906,20.5781 Q539.1156,19.4219 540.2094,18.8125 Q541.3031,18.1875 542.5375,18.1875 Q543.2719,18.1875 543.9125,18.3594 Q544.5688,18.5156 545.1156,18.875 Z " fill="#000000"/><text fill="#000000" font-family="sans-serif" font-size="12" lengthAdjust="spacing" textLength="131" x="561.65" y="27.9102">HealthcareWorkerTeam</text><line style="stroke:#A80036;stroke-width:1.5;" x1="504.5" x2="718.5" y1="39" y2="39"/><rect fill="none" height="6" style="stroke:#C82930;stroke-width:1.0;" width="6" x="511.5" y="47"/><text fill="#000000" font-family="sans-serif" font-size="11" lengthAdjust="spacing" textLength="190" x="523.5" y="54.4189">members : Set&lt;HealthcareServiceable&gt;</text><line style="stroke:#A80036;stroke-width:1.5;" x1="504.5" x2="718.5" y1="60.8359" y2="60.8359"/><ellipse cx="514.5" cy="71.8359" fill="#84BE84" rx="3" ry="3" style="stroke:#038048;stroke-width:1.0;"/><text fill="#000000" font-family="sans-serif" font-size="11" lengthAdjust="spacing" textLength="93" x="523.5" y="76.2549">addMember() : void</text><ellipse cx="514.5" cy="85.6719" fill="#84BE84" rx="3" ry="3" style="stroke:#038048;stroke-width:1.0;"/><text fill="#000000" font-family="sans-serif" font-size="11" lengthAdjust="spacing" textLength="111" x="523.5" y="90.0908">removeMember() : void</text><ellipse cx="514.5" cy="99.5078" fill="#84BE84" rx="3" ry="3" style="stroke:#038048;stroke-width:1.0;"/><text fill="#000000" font-family="sans-serif" font-size="11" lengthAdjust="spacing" textLength="73" x="523.5" y="103.9268">service() : void</text><ellipse cx="514.5" cy="113.3438" fill="#84BE84" rx="3" ry="3" style="stroke:#038048;stroke-width:1.0;"/><text fill="#000000" font-family="sans-serif" font-size="11" lengthAdjust="spacing" textLength="88" x="523.5" y="117.7627">getPrice() : double</text><!--MD5=[a059576e163b46f56762f12600c49258]
class Nurse--><rect codeLine="22" fill="#FEFECE" filter="url(#f1gqwejycat4zp)" height="67.6719" id="Nurse" style="stroke:#A80036;stroke-width:1.5;" width="197" x="7" y="358.5"/><ellipse cx="84.25" cy="374.5" fill="#ADD1B2" rx="11" ry="11" style="stroke:#A80036;stroke-width:1.0;"/><path d="M87.0156,370.375 Q87.1719,370.1563 87.3594,370.0469 Q87.5469,369.9375 87.7656,369.9375 Q88.1406,369.9375 88.375,370.2031 Q88.6094,370.4531 88.6094,371.0625 L88.6094,372.5156 Q88.6094,373.125 88.375,373.3906 Q88.1406,373.6563 87.7656,373.6563 Q87.4219,373.6563 87.2188,373.4531 Q87.0156,373.2656 86.9063,372.75 Q86.8594,372.3906 86.6719,372.2031 Q86.3438,371.8281 85.7344,371.6094 Q85.125,371.3906 84.5,371.3906 Q83.7344,371.3906 83.0938,371.7188 Q82.4688,372.0469 81.9688,372.7969 Q81.4844,373.5469 81.4844,374.5781 L81.4844,375.6719 Q81.4844,376.9063 82.375,377.7344 Q83.2656,378.5469 84.8594,378.5469 Q85.7969,378.5469 86.4531,378.2969 Q86.8438,378.1406 87.2656,377.7031 Q87.5313,377.4375 87.6719,377.3594 Q87.8281,377.2813 88.0313,377.2813 Q88.3594,377.2813 88.6094,377.5469 Q88.875,377.7969 88.875,378.1406 Q88.875,378.4844 88.5313,378.8906 Q88.0313,379.4688 87.2344,379.7969 Q86.1563,380.25 84.8594,380.25 Q83.3438,380.25 82.1406,379.625 Q81.1563,379.125 80.4688,378.0625 Q79.7813,376.9844 79.7813,375.7031 L79.7813,374.5469 Q79.7813,373.2188 80.3906,372.0781 Q81.0156,370.9219 82.1094,370.3125 Q83.2031,369.6875 84.4375,369.6875 Q85.1719,369.6875 85.8125,369.8594 Q86.4688,370.0156 87.0156,370.375 Z " fill="#000000"/><text fill="#000000" font-family="sans-serif" font-size="12" lengthAdjust="spacing" textLength="34" x="104.75" y="379.4102">Nurse</text><line style="stroke:#A80036;stroke-width:1.5;" x1="8" x2="203" y1="390.5" y2="390.5"/><ellipse cx="18" cy="401.5" fill="#84BE84" rx="3" ry="3" style="stroke:#038048;stroke-width:1.0;"/><text fill="#000000" font-family="sans-serif" font-size="11" lengthAdjust="spacing" textLength="171" x="27" y="405.9189">Nurse(name : String, price : double)</text><ellipse cx="18" cy="415.3359" fill="#84BE84" rx="3" ry="3" style="stroke:#038048;stroke-width:1.0;"/><text fill="#000000" font-family="sans-serif" font-size="11" lengthAdjust="spacing" textLength="73" x="27" y="419.7549">service() : void</text><!--MD5=[1d0c928ac6c71d4138571e75d7d424e5]
class Surgeon--><rect codeLine="26" fill="#FEFECE" filter="url(#f1gqwejycat4zp)" height="67.6719" id="Surgeon" style="stroke:#A80036;stroke-width:1.5;" width="209" x="529" y="358.5"/><ellipse cx="605.75" cy="374.5" fill="#ADD1B2" rx="11" ry="11" style="stroke:#A80036;stroke-width:1.0;"/><path d="M608.5156,370.375 Q608.6719,370.1563 608.8594,370.0469 Q609.0469,369.9375 609.2656,369.9375 Q609.6406,369.9375 609.875,370.2031 Q610.1094,370.4531 610.1094,371.0625 L610.1094,372.5156 Q610.1094,373.125 609.875,373.3906 Q609.6406,373.6563 609.2656,373.6563 Q608.9219,373.6563 608.7188,373.4531 Q608.5156,373.2656 608.4063,372.75 Q608.3594,372.3906 608.1719,372.2031 Q607.8438,371.8281 607.2344,371.6094 Q606.625,371.3906 606,371.3906 Q605.2344,371.3906 604.5938,371.7188 Q603.9688,372.0469 603.4688,372.7969 Q602.9844,373.5469 602.9844,374.5781 L602.9844,375.6719 Q602.9844,376.9063 603.875,377.7344 Q604.7656,378.5469 606.3594,378.5469 Q607.2969,378.5469 607.9531,378.2969 Q608.3438,378.1406 608.7656,377.7031 Q609.0313,377.4375 609.1719,377.3594 Q609.3281,377.2813 609.5313,377.2813 Q609.8594,377.2813 610.1094,377.5469 Q610.375,377.7969 610.375,378.1406 Q610.375,378.4844 610.0313,378.8906 Q609.5313,379.4688 608.7344,379.7969 Q607.6563,380.25 606.3594,380.25 Q604.8438,380.25 603.6406,379.625 Q602.6563,379.125 601.9688,378.0625 Q601.2813,376.9844 601.2813,375.7031 L601.2813,374.5469 Q601.2813,373.2188 601.8906,372.0781 Q602.5156,370.9219 603.6094,370.3125 Q604.7031,369.6875 605.9375,369.6875 Q606.6719,369.6875 607.3125,369.8594 Q607.9688,370.0156 608.5156,370.375 Z " fill="#000000"/><text fill="#000000" font-family="sans-serif" font-size="12" lengthAdjust="spacing" textLength="47" x="626.25" y="379.4102">Surgeon</text><line style="stroke:#A80036;stroke-width:1.5;" x1="530" x2="737" y1="390.5" y2="390.5"/><ellipse cx="540" cy="401.5" fill="#84BE84" rx="3" ry="3" style="stroke:#038048;stroke-width:1.0;"/><text fill="#000000" font-family="sans-serif" font-size="11" lengthAdjust="spacing" textLength="183" x="549" y="405.9189">Surgeon(name : String, price : double)</text><ellipse cx="540" cy="415.3359" fill="#84BE84" rx="3" ry="3" style="stroke:#038048;stroke-width:1.0;"/><text fill="#000000" font-family="sans-serif" font-size="11" lengthAdjust="spacing" textLength="73" x="549" y="419.7549">service() : void</text><!--MD5=[2d53307540ce1ed7dbd1abbdf3ddac8f]
class Anesthesiologist--><rect codeLine="30" fill="#FEFECE" filter="url(#f1gqwejycat4zp)" height="67.6719" id="Anesthesiologist" style="stroke:#A80036;stroke-width:1.5;" width="248" x="107.5" y="511"/><ellipse cx="181.25" cy="527" fill="#ADD1B2" rx="11" ry="11" style="stroke:#A80036;stroke-width:1.0;"/><path d="M184.0156,522.875 Q184.1719,522.6563 184.3594,522.5469 Q184.5469,522.4375 184.7656,522.4375 Q185.1406,522.4375 185.375,522.7031 Q185.6094,522.9531 185.6094,523.5625 L185.6094,525.0156 Q185.6094,525.625 185.375,525.8906 Q185.1406,526.1563 184.7656,526.1563 Q184.4219,526.1563 184.2188,525.9531 Q184.0156,525.7656 183.9063,525.25 Q183.8594,524.8906 183.6719,524.7031 Q183.3438,524.3281 182.7344,524.1094 Q182.125,523.8906 181.5,523.8906 Q180.7344,523.8906 180.0938,524.2188 Q179.4688,524.5469 178.9688,525.2969 Q178.4844,526.0469 178.4844,527.0781 L178.4844,528.1719 Q178.4844,529.4063 179.375,530.2344 Q180.2656,531.0469 181.8594,531.0469 Q182.7969,531.0469 183.4531,530.7969 Q183.8438,530.6406 184.2656,530.2031 Q184.5313,529.9375 184.6719,529.8594 Q184.8281,529.7813 185.0313,529.7813 Q185.3594,529.7813 185.6094,530.0469 Q185.875,530.2969 185.875,530.6406 Q185.875,530.9844 185.5313,531.3906 Q185.0313,531.9688 184.2344,532.2969 Q183.1563,532.75 181.8594,532.75 Q180.3438,532.75 179.1406,532.125 Q178.1563,531.625 177.4688,530.5625 Q176.7813,529.4844 176.7813,528.2031 L176.7813,527.0469 Q176.7813,525.7188 177.3906,524.5781 Q178.0156,523.4219 179.1094,522.8125 Q180.2031,522.1875 181.4375,522.1875 Q182.1719,522.1875 182.8125,522.3594 Q183.4688,522.5156 184.0156,522.875 Z " fill="#000000"/><text fill="#000000" font-family="sans-serif" font-size="12" lengthAdjust="spacing" textLength="92" x="201.75" y="531.9102">Anesthesiologist</text><line style="stroke:#A80036;stroke-width:1.5;" x1="108.5" x2="354.5" y1="543" y2="543"/><ellipse cx="118.5" cy="554" fill="#84BE84" rx="3" ry="3" style="stroke:#038048;stroke-width:1.0;"/><text fill="#000000" font-family="sans-serif" font-size="11" lengthAdjust="spacing" textLength="222" x="127.5" y="558.4189">Anesthesiologist(name : String, price : double)</text><ellipse cx="118.5" cy="567.8359" fill="#84BE84" rx="3" ry="3" style="stroke:#038048;stroke-width:1.0;"/><text fill="#000000" font-family="sans-serif" font-size="11" lengthAdjust="spacing" textLength="73" x="127.5" y="572.2549">service() : void</text><!--MD5=[6e330891df2672e19499ff86ae688a18]
class Cardiologist--><rect codeLine="34" fill="#FEFECE" filter="url(#f1gqwejycat4zp)" height="67.6719" id="Cardiologist" style="stroke:#A80036;stroke-width:1.5;" width="224" x="390.5" y="511"/><ellipse cx="464.75" cy="527" fill="#ADD1B2" rx="11" ry="11" style="stroke:#A80036;stroke-width:1.0;"/><path d="M467.5156,522.875 Q467.6719,522.6563 467.8594,522.5469 Q468.0469,522.4375 468.2656,522.4375 Q468.6406,522.4375 468.875,522.7031 Q469.1094,522.9531 469.1094,523.5625 L469.1094,525.0156 Q469.1094,525.625 468.875,525.8906 Q468.6406,526.1563 468.2656,526.1563 Q467.9219,526.1563 467.7188,525.9531 Q467.5156,525.7656 467.4063,525.25 Q467.3594,524.8906 467.1719,524.7031 Q466.8438,524.3281 466.2344,524.1094 Q465.625,523.8906 465,523.8906 Q464.2344,523.8906 463.5938,524.2188 Q462.9688,524.5469 462.4688,525.2969 Q461.9844,526.0469 461.9844,527.0781 L461.9844,528.1719 Q461.9844,529.4063 462.875,530.2344 Q463.7656,531.0469 465.3594,531.0469 Q466.2969,531.0469 466.9531,530.7969 Q467.3438,530.6406 467.7656,530.2031 Q468.0313,529.9375 468.1719,529.8594 Q468.3281,529.7813 468.5313,529.7813 Q468.8594,529.7813 469.1094,530.0469 Q469.375,530.2969 469.375,530.6406 Q469.375,530.9844 469.0313,531.3906 Q468.5313,531.9688 467.7344,532.2969 Q466.6563,532.75 465.3594,532.75 Q463.8438,532.75 462.6406,532.125 Q461.6563,531.625 460.9688,530.5625 Q460.2813,529.4844 460.2813,528.2031 L460.2813,527.0469 Q460.2813,525.7188 460.8906,524.5781 Q461.5156,523.4219 462.6094,522.8125 Q463.7031,522.1875 464.9375,522.1875 Q465.6719,522.1875 466.3125,522.3594 Q466.9688,522.5156 467.5156,522.875 Z " fill="#000000"/><text fill="#000000" font-family="sans-serif" font-size="12" lengthAdjust="spacing" textLength="67" x="485.25" y="531.9102">Cardiologist</text><line style="stroke:#A80036;stroke-width:1.5;" x1="391.5" x2="613.5" y1="543" y2="543"/><ellipse cx="401.5" cy="554" fill="#84BE84" rx="3" ry="3" style="stroke:#038048;stroke-width:1.0;"/><text fill="#000000" font-family="sans-serif" font-size="11" lengthAdjust="spacing" textLength="198" x="410.5" y="558.4189">Cardiologist(name : String, price : double)</text><ellipse cx="401.5" cy="567.8359" fill="#84BE84" rx="3" ry="3" style="stroke:#038048;stroke-width:1.0;"/><text fill="#000000" font-family="sans-serif" font-size="11" lengthAdjust="spacing" textLength="73" x="410.5" y="572.2549">service() : void</text><!--MD5=[f34e8d2da637f3c02ad3c312292b6ecf]
class HealthcareWorkerDecorator--><rect codeLine="38" fill="#FEFECE" filter="url(#f1gqwejycat4zp)" height="89.5078" id="HealthcareWorkerDecorator" style="stroke:#A80036;stroke-width:1.5;" width="186" x="273.5" y="184"/><ellipse cx="288.5" cy="200" fill="#A9DCDF" rx="11" ry="11" style="stroke:#A80036;stroke-width:1.0;"/><path d="M290.6875,201.7656 L286.5469,201.7656 L286.125,202.7969 L286.5469,202.7969 Q287.1563,202.7969 287.4219,203.0313 Q287.6875,203.2656 287.6875,203.6563 Q287.6875,204.0313 287.4219,204.2656 Q287.1563,204.5 286.5469,204.5 L284.25,204.5 Q283.6406,204.5 283.3906,204.2656 Q283.125,204.0313 283.125,203.6406 Q283.125,203.2656 283.4063,203.0313 Q283.6719,202.7813 284.2969,202.7969 L286.9688,196.1406 L285.8594,196.1406 Q285.25,196.1406 284.9844,195.9063 Q284.7188,195.6719 284.7188,195.2813 Q284.7188,194.9063 284.9844,194.6719 Q285.25,194.4375 285.8594,194.4375 L289.5313,194.4375 L292.9219,202.7969 Q293.5156,202.7969 293.7031,202.9375 Q294.0938,203.2031 294.0938,203.6563 Q294.0938,204.0313 293.8281,204.2656 Q293.5781,204.5 292.9688,204.5 L290.6719,204.5 Q290.0625,204.5 289.7969,204.2656 Q289.5313,204.0313 289.5313,203.6406 Q289.5313,203.2656 289.7969,203.0313 Q290.0625,202.7969 290.6719,202.7969 L291.0938,202.7969 L290.6875,201.7656 Z M289.9688,200.0625 L288.6094,196.6875 L287.2344,200.0625 L289.9688,200.0625 Z " fill="#000000"/><text fill="#000000" font-family="sans-serif" font-size="12" font-style="italic" lengthAdjust="spacing" textLength="154" x="302.5" y="204.9102">HealthcareWorkerDecorator</text><line style="stroke:#A80036;stroke-width:1.5;" x1="274.5" x2="458.5" y1="216" y2="216"/><rect fill="none" height="6" style="stroke:#C82930;stroke-width:1.0;" width="6" x="281.5" y="224"/><text fill="#000000" font-family="sans-serif" font-size="11" lengthAdjust="spacing" textLength="131" x="293.5" y="231.4189">worker : HealthcareWorker</text><line style="stroke:#A80036;stroke-width:1.5;" x1="274.5" x2="458.5" y1="237.8359" y2="237.8359"/><ellipse cx="284.5" cy="248.8359" fill="#84BE84" rx="3" ry="3" style="stroke:#038048;stroke-width:1.0;"/><text fill="#000000" font-family="sans-serif" font-size="11" lengthAdjust="spacing" textLength="73" x="293.5" y="253.2549">service() : void</text><ellipse cx="284.5" cy="262.6719" fill="#84BE84" rx="3" ry="3" style="stroke:#038048;stroke-width:1.0;"/><text fill="#000000" font-family="sans-serif" font-size="11" lengthAdjust="spacing" textLength="88" x="293.5" y="267.0908">getPrice() : double</text><!--MD5=[d81e4806421da52752f0e56fda16148e]
class TimeLoggingHealthcareWorker--><rect codeLine="43" fill="#FEFECE" filter="url(#f1gqwejycat4zp)" height="53.8359" id="TimeLoggingHealthcareWorker" style="stroke:#A80036;stroke-width:1.5;" width="204" x="264.5" y="38.5"/><ellipse cx="279.5" cy="54.5" fill="#ADD1B2" rx="11" ry="11" style="stroke:#A80036;stroke-width:1.0;"/><path d="M282.2656,50.375 Q282.4219,50.1563 282.6094,50.0469 Q282.7969,49.9375 283.0156,49.9375 Q283.3906,49.9375 283.625,50.2031 Q283.8594,50.4531 283.8594,51.0625 L283.8594,52.5156 Q283.8594,53.125 283.625,53.3906 Q283.3906,53.6563 283.0156,53.6563 Q282.6719,53.6563 282.4688,53.4531 Q282.2656,53.2656 282.1563,52.75 Q282.1094,52.3906 281.9219,52.2031 Q281.5938,51.8281 280.9844,51.6094 Q280.375,51.3906 279.75,51.3906 Q278.9844,51.3906 278.3438,51.7188 Q277.7188,52.0469 277.2188,52.7969 Q276.7344,53.5469 276.7344,54.5781 L276.7344,55.6719 Q276.7344,56.9063 277.625,57.7344 Q278.5156,58.5469 280.1094,58.5469 Q281.0469,58.5469 281.7031,58.2969 Q282.0938,58.1406 282.5156,57.7031 Q282.7813,57.4375 282.9219,57.3594 Q283.0781,57.2813 283.2813,57.2813 Q283.6094,57.2813 283.8594,57.5469 Q284.125,57.7969 284.125,58.1406 Q284.125,58.4844 283.7813,58.8906 Q283.2813,59.4688 282.4844,59.7969 Q281.4063,60.25 280.1094,60.25 Q278.5938,60.25 277.3906,59.625 Q276.4063,59.125 275.7188,58.0625 Q275.0313,56.9844 275.0313,55.7031 L275.0313,54.5469 Q275.0313,53.2188 275.6406,52.0781 Q276.2656,50.9219 277.3594,50.3125 Q278.4531,49.6875 279.6875,49.6875 Q280.4219,49.6875 281.0625,49.8594 Q281.7188,50.0156 282.2656,50.375 Z " fill="#000000"/><text fill="#000000" font-family="sans-serif" font-size="12" lengthAdjust="spacing" textLength="172" x="293.5" y="59.4102">TimeLoggingHealthcareWorker</text><line style="stroke:#A80036;stroke-width:1.5;" x1="265.5" x2="467.5" y1="70.5" y2="70.5"/><ellipse cx="275.5" cy="81.5" fill="#84BE84" rx="3" ry="3" style="stroke:#038048;stroke-width:1.0;"/><text fill="#000000" font-family="sans-serif" font-size="11" lengthAdjust="spacing" textLength="73" x="284.5" y="85.9189">service() : void</text><!--MD5=[12070b01251d93738382637741779a88]
class TaxPayingHealthcareWorker--><rect codeLine="46" fill="#FEFECE" filter="url(#f1gqwejycat4zp)" height="53.8359" id="TaxPayingHealthcareWorker" style="stroke:#A80036;stroke-width:1.5;" width="187" x="42" y="38.5"/><ellipse cx="57" cy="54.5" fill="#ADD1B2" rx="11" ry="11" style="stroke:#A80036;stroke-width:1.0;"/><path d="M59.7656,50.375 Q59.9219,50.1563 60.1094,50.0469 Q60.2969,49.9375 60.5156,49.9375 Q60.8906,49.9375 61.125,50.2031 Q61.3594,50.4531 61.3594,51.0625 L61.3594,52.5156 Q61.3594,53.125 61.125,53.3906 Q60.8906,53.6563 60.5156,53.6563 Q60.1719,53.6563 59.9688,53.4531 Q59.7656,53.2656 59.6563,52.75 Q59.6094,52.3906 59.4219,52.2031 Q59.0938,51.8281 58.4844,51.6094 Q57.875,51.3906 57.25,51.3906 Q56.4844,51.3906 55.8438,51.7188 Q55.2188,52.0469 54.7188,52.7969 Q54.2344,53.5469 54.2344,54.5781 L54.2344,55.6719 Q54.2344,56.9063 55.125,57.7344 Q56.0156,58.5469 57.6094,58.5469 Q58.5469,58.5469 59.2031,58.2969 Q59.5938,58.1406 60.0156,57.7031 Q60.2813,57.4375 60.4219,57.3594 Q60.5781,57.2813 60.7813,57.2813 Q61.1094,57.2813 61.3594,57.5469 Q61.625,57.7969 61.625,58.1406 Q61.625,58.4844 61.2813,58.8906 Q60.7813,59.4688 59.9844,59.7969 Q58.9063,60.25 57.6094,60.25 Q56.0938,60.25 54.8906,59.625 Q53.9063,59.125 53.2188,58.0625 Q52.5313,56.9844 52.5313,55.7031 L52.5313,54.5469 Q52.5313,53.2188 53.1406,52.0781 Q53.7656,50.9219 54.8594,50.3125 Q55.9531,49.6875 57.1875,49.6875 Q57.9219,49.6875 58.5625,49.8594 Q59.2188,50.0156 59.7656,50.375 Z " fill="#000000"/><text fill="#000000" font-family="sans-serif" font-size="12" lengthAdjust="spacing" textLength="155" x="71" y="59.4102">TaxPayingHealthcareWorker</text><line style="stroke:#A80036;stroke-width:1.5;" x1="43" x2="228" y1="70.5" y2="70.5"/><ellipse cx="53" cy="81.5" fill="#84BE84" rx="3" ry="3" style="stroke:#038048;stroke-width:1.0;"/><text fill="#000000" font-family="sans-serif" font-size="11" lengthAdjust="spacing" textLength="88" x="62" y="85.9189">getPrice() : double</text><!--MD5=[a0a25157291f6d799a1fca097afef6fa]
reverse link HealthcareServiceable to HealthcareWorker--><path codeLine="51" d="M544.6,274.1 C516.59,292.56 483.66,314.27 453.78,333.96 " fill="none" id="HealthcareServiceable-backto-HealthcareWorker" style="stroke:#A80036;stroke-width:1.0;stroke-dasharray:7.0,7.0;"/><polygon fill="none" points="540.78,268.23,561.33,263.07,548.48,279.92,540.78,268.23" style="stroke:#A80036;stroke-width:1.0;"/><!--MD5=[0a7cf4853dc964fdc2fb37a553cab3db]
link HealthcareWorkerTeam to HealthcareServiceable--><path codeLine="52" d="M599.22,124.35 C598.53,140.84 598.6,158.71 599.44,174.9 " fill="none" id="HealthcareWorkerTeam-to-HealthcareServiceable" style="stroke:#A80036;stroke-width:1.0;stroke-dasharray:7.0,7.0;"/><polygon fill="none" points="606.43,174.48,600.98,194.96,592.47,175.55,606.43,174.48" style="stroke:#A80036;stroke-width:1.0;"/><!--MD5=[0a7cf4853dc964fdc2fb37a553cab3db]
link HealthcareWorkerTeam to HealthcareServiceable--><path codeLine="53" d="M624.8791,136.3443 C624.8791,136.3443 624.83,167.91 623.84,181.75 " fill="none" id="HealthcareWorkerTeam-HealthcareServiceable" style="stroke:#A80036;stroke-width:1.0;"/><polygon fill="#A80036" points="622.64,194.96,627.4341,186.3567,623.0902,189.9803,619.4666,185.6364,622.64,194.96" style="stroke:#A80036;stroke-width:1.0;"/><line style="stroke:#A80036;stroke-width:1.0;" x1="623.0902" x2="623.815" y1="189.9803" y2="182.01"/><polygon fill="#FFFFFF" points="624.51,124.35,620.6964,130.4702,624.8791,136.3443,628.6926,130.2241,624.51,124.35" style="stroke:#A80036;stroke-width:1.0;"/><!--MD5=[bf0bf8bf81c85a83308669e6ba7db99e]
reverse link HealthcareWorker to Anesthesiologist--><path codeLine="54" d="M301.31,466.18 C287.22,481.88 273,497.73 261.11,511 " fill="none" id="HealthcareWorker-backto-Anesthesiologist" style="stroke:#A80036;stroke-width:1.0;"/><polygon fill="none" points="296.13,461.47,314.69,451.26,306.55,470.82,296.13,461.47" style="stroke:#A80036;stroke-width:1.0;"/><!--MD5=[4650b61a76d35492305ec214103962e6]
reverse link HealthcareWorker to Cardiologist--><path codeLine="55" d="M432.17,466.18 C446.37,481.88 460.69,497.73 472.68,511 " fill="none" id="HealthcareWorker-backto-Cardiologist" style="stroke:#A80036;stroke-width:1.0;"/><polygon fill="none" points="426.91,470.79,418.69,451.26,437.3,461.4,426.91,470.79" style="stroke:#A80036;stroke-width:1.0;"/><!--MD5=[ab8e6f9abd94367990b8b6e9f0ae44ce]
link Nurse to HealthcareWorker--><path codeLine="56" d="M204.14,392.5 C208.91,392.5 213.68,392.5 218.45,392.5 " fill="none" id="Nurse-to-HealthcareWorker" style="stroke:#A80036;stroke-width:1.0;"/><polygon fill="none" points="218.7,385.5,238.7,392.5,218.7,399.5,218.7,385.5" style="stroke:#A80036;stroke-width:1.0;"/><!--MD5=[3ac8787a9288a27b3325a4616e2d8761]
reverse link HealthcareWorker to Surgeon--><path codeLine="57" d="M514.16,392.5 C519.07,392.5 523.97,392.5 528.88,392.5 " fill="none" id="HealthcareWorker-backto-Surgeon" style="stroke:#A80036;stroke-width:1.0;"/><polygon fill="none" points="514,399.5,494,392.5,514,385.5,514,399.5" style="stroke:#A80036;stroke-width:1.0;"/><!--MD5=[2164cf0487466ecf001d20a8140e374a]
link HealthcareWorkerDecorator to HealthcareWorker--><path codeLine="58" d="M355,274.13 C354.1,286.35 353.69,299.98 353.76,313.52 " fill="none" id="HealthcareWorkerDecorator-to-HealthcareWorker" style="stroke:#A80036;stroke-width:1.0;"/><polygon fill="none" points="360.76,313.62,354.22,333.78,346.76,313.95,360.76,313.62" style="stroke:#A80036;stroke-width:1.0;"/><!--MD5=[2164cf0487466ecf001d20a8140e374a]
link HealthcareWorkerDecorator to HealthcareWorker--><path codeLine="59" d="M379.4047,286.1081 C379.4047,286.1081 380.11,309.48 379.91,320.51 " fill="none" id="HealthcareWorkerDecorator-HealthcareWorker" style="stroke:#A80036;stroke-width:1.0;"/><polygon fill="#A80036" points="379.5,333.78,383.7849,324.9121,379.6594,328.7825,375.789,324.657,379.5,333.78" style="stroke:#A80036;stroke-width:1.0;"/><line style="stroke:#A80036;stroke-width:1.0;" x1="379.6594" x2="379.905" y1="328.7825" y2="320.785"/><polygon fill="#FFFFFF" points="378.68,274.13,375.0497,280.3606,379.4047,286.1081,383.0351,279.8775,378.68,274.13" style="stroke:#A80036;stroke-width:1.0;"/><!--MD5=[452ef5ebae67567e6dccc1933bff1341]
link TimeLoggingHealthcareWorker to HealthcareWorkerDecorator--><path codeLine="60" d="M366.5,92.81 C366.5,112.01 366.5,138.9 366.5,163.65 " fill="none" id="TimeLoggingHealthcareWorker-to-HealthcareWorkerDecorator" style="stroke:#A80036;stroke-width:1.0;"/><polygon fill="none" points="373.5,163.72,366.5,183.72,359.5,163.72,373.5,163.72" style="stroke:#A80036;stroke-width:1.0;"/><!--MD5=[6692f83cfca6c9ff34801fb64ae80a98]
link TaxPayingHealthcareWorker to HealthcareWorkerDecorator--><path codeLine="61" d="M172.87,92.63 C203.64,114.14 248.33,145.39 287.03,172.44 " fill="none" id="TaxPayingHealthcareWorker-to-HealthcareWorkerDecorator" style="stroke:#A80036;stroke-width:1.0;"/><polygon fill="none" points="291.09,166.74,303.47,183.93,283.07,178.21,291.09,166.74" style="stroke:#A80036;stroke-width:1.0;"/><!--MD5=[cb115cf27033082f07281671344a5b15]
@startuml
'https://plantuml.com/class-diagram

'class Main
interface HealthcareServiceable {
    + service() : void
    + getPrice() : double
}
abstract HealthcareWorker {
    - name : String
    - price : double
    + HealthcareWorker(name : String, price : double)
    + {abstract} service() : void
    + getPrice() : double
}
class HealthcareWorkerTeam {
    - members : Set<HealthcareServiceable>
    + addMember() : void
    + removeMember() : void
    + service() : void
    + getPrice() : double
}
class Nurse {
    + Nurse(name : String, price : double)
    + service() : void
}
class Surgeon {
    + Surgeon(name : String, price : double)
    + service() : void
}
class Anesthesiologist {
    + Anesthesiologist(name : String, price : double)
    + service() : void
}
class Cardiologist {
    + Cardiologist(name : String, price : double)
    + service() : void
}
abstract HealthcareWorkerDecorator {
    - worker : HealthcareWorker
    + service() : void
    + getPrice() : double
}
class TimeLoggingHealthcareWorker {
    + service() : void
}
class TaxPayingHealthcareWorker {
    + getPrice() : double
}

'Main  -l->    HealthcareServiceable
HealthcareServiceable   ^.d.    HealthcareWorker
HealthcareServiceable   ^.u.    HealthcareWorkerTeam
HealthcareServiceable   <-u-o   HealthcareWorkerTeam
HealthcareWorker    ^-d-    Anesthesiologist
HealthcareWorker    ^-d-    Cardiologist
HealthcareWorker    ^-l-    Nurse
HealthcareWorker    ^-r-    Surgeon
HealthcareWorker    ^-u-    HealthcareWorkerDecorator
HealthcareWorker    <-u-o   HealthcareWorkerDecorator
HealthcareWorkerDecorator   ^-u-    TimeLoggingHealthcareWorker
HealthcareWorkerDecorator   ^-u-    TaxPayingHealthcareWorker

hide empty members
@enduml

@startuml

interface HealthcareServiceable {
    + service() : void
    + getPrice() : double
}
abstract HealthcareWorker {
    - name : String
    - price : double
    + HealthcareWorker(name : String, price : double)
    + {abstract} service() : void
    + getPrice() : double
}
class HealthcareWorkerTeam {
    - members : Set<HealthcareServiceable>
    + addMember() : void
    + removeMember() : void
    + service() : void
    + getPrice() : double
}
class Nurse {
    + Nurse(name : String, price : double)
    + service() : void
}
class Surgeon {
    + Surgeon(name : String, price : double)
    + service() : void
}
class Anesthesiologist {
    + Anesthesiologist(name : String, price : double)
    + service() : void
}
class Cardiologist {
    + Cardiologist(name : String, price : double)
    + service() : void
}
abstract HealthcareWorkerDecorator {
    - worker : HealthcareWorker
    + service() : void
    + getPrice() : double
}
class TimeLoggingHealthcareWorker {
    + service() : void
}
class TaxPayingHealthcareWorker {
    + getPrice() : double
}

HealthcareServiceable   ^.d.    HealthcareWorker
HealthcareServiceable   ^.u.    HealthcareWorkerTeam
HealthcareServiceable   <-u-o   HealthcareWorkerTeam
HealthcareWorker    ^-d-    Anesthesiologist
HealthcareWorker    ^-d-    Cardiologist
HealthcareWorker    ^-l-    Nurse
HealthcareWorker    ^-r-    Surgeon
HealthcareWorker    ^-u-    HealthcareWorkerDecorator
HealthcareWorker    <-u-o   HealthcareWorkerDecorator
HealthcareWorkerDecorator   ^-u-    TimeLoggingHealthcareWorker
HealthcareWorkerDecorator   ^-u-    TaxPayingHealthcareWorker

hide empty members
@enduml

PlantUML version 1.2022.0(Tue Jan 11 23:16:42 ICT 2022)
(GPL source distribution)
Java Runtime: Java(TM) SE Runtime Environment
JVM: Java HotSpot(TM) 64-Bit Server VM
Default Encoding: Cp1252
Language: en
Country: US
--></g></svg>